<?xml version="1.0" encoding="UTF-8"?>
<svg width="500" height="400" viewBox="0 0 500 400" fill="none" xmlns="http://www.w3.org/2000/svg">
    <style>
        @keyframes float {
            0% { transform: translateY(0px); }
            50% { transform: translateY(-20px); }
            100% { transform: translateY(0px); }
        }
        .floating {
            animation: float 6s ease-in-out infinite;
        }
    </style>
    
    <!-- Фон -->
    <rect width="500" height="400" fill="#F8F9FA"/>
    
    <!-- Облака -->
    <g class="floating">
        <circle cx="100" cy="100" r="30" fill="#E9ECEF"/>
        <circle cx="130" cy="90" r="25" fill="#E9ECEF"/>
        <circle cx="70" cy="110" r="20" fill="#E9ECEF"/>
    </g>
    
    <!-- Ракета -->
    <g transform="translate(250, 200)">
        <!-- Корпус -->
        <path d="M-50,0 L50,0 L30,100 L-30,100 Z" fill="#009FFD"/>
        
        <!-- Окно -->
        <circle cx="0" cy="30" r="15" fill="#FFFFFF"/>
        
        <!-- Пламя -->
        <path d="M-30,100 L0,150 L30,100 Z" fill="#FF4757"/>
        
        <!-- Крылья -->
        <path d="M-50,0 L-80,-30 L-50,-60 L-20,-30 Z" fill="#009FFD"/>
        <path d="M50,0 L80,-30 L50,-60 L20,-30 Z" fill="#009FFD"/>
    </g>
    
    <!-- Звезды -->
    <g>
        <circle cx="50" cy="50" r="2" fill="#009FFD"/>
        <circle cx="150" cy="30" r="2" fill="#009FFD"/>
        <circle cx="250" cy="60" r="2" fill="#009FFD"/>
        <circle cx="350" cy="40" r="2" fill="#009FFD"/>
        <circle cx="450" cy="70" r="2" fill="#009FFD"/>
    </g>
</svg> 