<svg width="11" height="20" viewBox="0 0 11 20" fill="none" xmlns="http://www.w3.org/2000/svg">
<path fill-rule="evenodd" clip-rule="evenodd" d="M10.6337 0.293197C10.2287 -0.0968022 9.57372 -0.0968022 9.16972 0.293197L0.606724 8.5572C0.415044 8.73936 0.262417 8.95861 0.158123 9.2016C0.0538288 9.4446 4.63724e-05 9.70627 4.63724e-05 9.9707C4.63724e-05 10.2351 0.0538288 10.4968 0.158123 10.7398C0.262417 10.9828 0.415044 11.202 0.606724 11.3842L9.23172 19.7092C9.42747 19.8953 9.68669 19.9998 9.95675 20.0017C10.2268 20.0035 10.4874 19.9025 10.6857 19.7192C10.784 19.6287 10.8625 19.5189 10.9166 19.3968C10.9707 19.2746 10.9992 19.1427 11.0002 19.0091C11.0012 18.8755 10.9748 18.7431 10.9226 18.6202C10.8704 18.4972 10.7935 18.3862 10.6967 18.2942L2.80272 10.6772C2.70681 10.5861 2.63043 10.4765 2.57823 10.3549C2.52604 10.2334 2.49912 10.1025 2.49912 9.9702C2.49912 9.83792 2.52604 9.70703 2.57823 9.58548C2.63043 9.46394 2.70681 9.35429 2.80272 9.2632L10.6337 1.7062C10.7296 1.6152 10.806 1.50563 10.8582 1.38417C10.9103 1.26271 10.9373 1.13189 10.9373 0.999698C10.9373 0.867502 10.9103 0.736688 10.8582 0.615226C10.806 0.493764 10.7296 0.384197 10.6337 0.293197Z" fill="#FCFCFC"/>
</svg>
