<svg width="30" height="30" viewBox="0 0 30 30" fill="none" xmlns="http://www.w3.org/2000/svg">
<path d="M15 0C11.0231 0.00444664 7.21039 1.58623 4.39831 4.39831C1.58623 7.21039 0.00444664 11.0231 0 15C0.00666324 18.9762 1.58916 22.7876 4.40076 25.5992C7.21236 28.4108 11.0238 29.9933 15 30C18.9782 30 22.7936 28.4196 25.6066 25.6066C28.4196 22.7936 30 18.9782 30 15C30 11.0218 28.4196 7.20644 25.6066 4.3934C22.7936 1.58035 18.9782 0 15 0ZM24.1236 23.6556C23.2812 21.9564 21.9807 20.5265 20.3688 19.5271C18.7569 18.5277 16.8978 17.9987 15.0012 17.9997C13.1047 18.0007 11.2461 18.5316 9.63529 19.5327C8.02446 20.5338 6.72544 21.9651 5.8848 23.6652C3.6419 21.339 2.39213 18.2314 2.4 15C2.4 11.6583 3.7275 8.45341 6.09046 6.09046C8.45341 3.7275 11.6583 2.4 15 2.4C18.3417 2.4 21.5466 3.7275 23.9095 6.09046C26.2725 8.45341 27.6 11.6583 27.6 15C27.6075 18.2269 26.361 21.3304 24.1236 23.6556ZM15 6C13.932 6 12.8879 6.3167 11.9999 6.91006C11.1119 7.50342 10.4198 8.34679 10.0111 9.33351C9.60234 10.3202 9.4954 11.406 9.70376 12.4535C9.91212 13.501 10.4264 14.4632 11.1816 15.2184C11.9368 15.9736 12.899 16.4879 13.9465 16.6962C14.994 16.9046 16.0798 16.7977 17.0665 16.389C18.0532 15.9802 18.8966 15.2881 19.4899 14.4001C20.0833 13.5121 20.4 12.468 20.4 11.4C20.4 10.6909 20.2603 9.98867 19.9889 9.33351C19.7176 8.67835 19.3198 8.08306 18.8184 7.58162C18.3169 7.08019 17.7216 6.68243 17.0665 6.41105C16.4113 6.13968 15.7091 6 15 6Z" fill="black"/>
</svg>
