<svg width="22" height="22" viewBox="0 0 22 22" fill="none" xmlns="http://www.w3.org/2000/svg">
<path d="M15.2998 14.0529C16.4751 12.5668 17.2174 10.6608 17.2174 8.56094C17.2174 3.84435 13.5368 0 9.021 0C4.50524 0 0.824585 3.84435 0.824585 8.56094C0.824585 13.2775 4.50524 17.1219 9.021 17.1219C11.0005 17.1219 12.8563 16.3789 14.2791 15.1189L20.6506 21.7739C20.8053 21.9354 20.9909 22 21.1764 22C21.362 22 21.5476 21.9354 21.7022 21.7739C21.9806 21.4831 21.9806 20.9662 21.7022 20.6755L15.2998 14.0529ZM8.99007 15.5712C5.27849 15.5712 2.27829 12.4376 2.27829 8.56094C2.27829 4.68429 5.27849 1.55066 8.99007 1.55066C12.7017 1.55066 15.7019 4.68429 15.7019 8.56094C15.7019 12.4376 12.7017 15.5712 8.99007 15.5712Z" fill="#FCFCFC"/>
</svg>
