<svg width="32" height="19" viewBox="0 0 32 19" fill="none" xmlns="http://www.w3.org/2000/svg">
<path d="M15.6576 18.1815H17.5697C17.5697 18.1815 18.1478 18.1175 18.4418 17.7995C18.7138 17.5075 18.7038 16.9594 18.7038 16.9594C18.7038 16.9594 18.6658 14.3932 19.8579 14.0152C21.032 13.6432 22.5401 16.4954 24.1382 17.5935C25.3463 18.4235 26.2644 18.2415 26.2644 18.2415L30.5387 18.1815C30.5387 18.1815 32.7749 18.0435 31.7148 16.2854C31.6288 16.1414 31.0967 14.9853 28.5365 12.6091C25.8563 10.1209 26.2164 10.5249 29.4446 6.22263C31.4108 3.60243 32.1968 2.00232 31.9508 1.31827C31.7168 0.666219 30.2707 0.838231 30.2707 0.838231L25.4623 0.866233C25.4623 0.866233 25.1063 0.81823 24.8403 0.976241C24.5823 1.13225 24.4162 1.49228 24.4162 1.49228C24.4162 1.49228 23.6542 3.52043 22.6381 5.24455C20.496 8.88282 19.6379 9.07483 19.2879 8.84882C18.4738 8.32278 18.6778 6.73266 18.6778 5.60458C18.6778 2.07832 19.2119 0.608214 17.6357 0.228186C17.1117 0.102177 16.7277 0.0181708 15.3896 0.00416973C13.6735 -0.0138316 12.2193 0.0101702 11.3973 0.4122C10.8492 0.680219 10.4272 1.27826 10.6852 1.31227C11.0033 1.35427 11.7233 1.50628 12.1053 2.02632C12.5994 2.69637 12.5814 4.20448 12.5814 4.20448C12.5814 4.20448 12.8654 8.35478 11.9193 8.87082C11.2693 9.22485 10.3792 8.50279 8.46907 5.20055C7.491 3.51043 6.75094 1.64029 6.75094 1.64029C6.75094 1.64029 6.60893 1.29226 6.35491 1.10625C6.04689 0.880234 5.61486 0.808229 5.61486 0.808229L1.04252 0.836231C1.04252 0.836231 0.356473 0.856232 0.104454 1.15425C-0.119562 1.42027 0.0864529 1.96831 0.0864529 1.96831C0.0864529 1.96831 3.66672 10.3429 7.71901 14.5652C11.4373 18.4355 15.6576 18.1815 15.6576 18.1815Z" fill="white"/>
</svg>
